<mxfile host="65bd71144e">
    <diagram id="FGZmTel3BhWxZvHrD2to" name="Registration">
        <mxGraphModel dx="891" dy="515" grid="1" gridSize="10" guides="1" tooltips="1" connect="1" arrows="1" fold="1" page="1" pageScale="1" pageWidth="827" pageHeight="1169" math="0" shadow="0">
            <root>
                <mxCell id="0"/>
                <mxCell id="1" parent="0"/>
                <mxCell id="2" value="&lt;h1&gt;Registration&lt;/h1&gt;&lt;p&gt;Process of registering a new user and allowing them to log into the dashboard.&lt;/p&gt;" style="text;html=1;strokeColor=#B3B3B3;fillColor=#F0F0F0;spacing=5;spacingTop=-20;whiteSpace=wrap;overflow=hidden;rounded=0;shadow=1;" parent="1" vertex="1">
                    <mxGeometry x="30" y="31" width="200" height="109" as="geometry"/>
                </mxCell>
                <mxCell id="6" value="" style="edgeStyle=none;html=1;" parent="1" source="3" target="5" edge="1">
                    <mxGeometry relative="1" as="geometry"/>
                </mxCell>
                <mxCell id="3" value="&lt;b&gt;START&lt;/b&gt;" style="rounded=1;whiteSpace=wrap;html=1;" parent="1" vertex="1">
                    <mxGeometry x="354" y="31" width="120" height="60" as="geometry"/>
                </mxCell>
                <mxCell id="8" value="" style="edgeStyle=none;html=1;" parent="1" source="5" target="7" edge="1">
                    <mxGeometry relative="1" as="geometry"/>
                </mxCell>
                <mxCell id="5" value="&lt;b&gt;DISPLAY registration form &lt;/b&gt;&lt;br&gt;with email address, password and confirm password fields" style="shape=parallelogram;perimeter=parallelogramPerimeter;whiteSpace=wrap;html=1;fixedSize=1;" parent="1" vertex="1">
                    <mxGeometry x="310" y="120" width="210" height="70" as="geometry"/>
                </mxCell>
                <mxCell id="10" value="" style="edgeStyle=none;html=1;" parent="1" source="7" target="9" edge="1">
                    <mxGeometry relative="1" as="geometry"/>
                </mxCell>
                <mxCell id="7" value="&lt;b&gt;INPUT email address&amp;nbsp;&lt;/b&gt;" style="shape=parallelogram;perimeter=parallelogramPerimeter;whiteSpace=wrap;html=1;fixedSize=1;" parent="1" vertex="1">
                    <mxGeometry x="329" y="220" width="170" height="40" as="geometry"/>
                </mxCell>
                <mxCell id="12" value="" style="edgeStyle=none;html=1;" parent="1" source="9" target="11" edge="1">
                    <mxGeometry relative="1" as="geometry"/>
                </mxCell>
                <mxCell id="22" value="" style="edgeStyle=none;html=1;" parent="1" source="9" target="21" edge="1">
                    <mxGeometry relative="1" as="geometry"/>
                </mxCell>
                <mxCell id="9" value="Does email address exist in the database?" style="rhombus;whiteSpace=wrap;html=1;" parent="1" vertex="1">
                    <mxGeometry x="348" y="290" width="134" height="110" as="geometry"/>
                </mxCell>
                <mxCell id="14" value="" style="edgeStyle=none;html=1;" parent="1" source="11" target="13" edge="1">
                    <mxGeometry relative="1" as="geometry"/>
                </mxCell>
                <mxCell id="11" value="&lt;b&gt;INPUT password&lt;/b&gt;" style="shape=parallelogram;perimeter=parallelogramPerimeter;whiteSpace=wrap;html=1;fixedSize=1;" parent="1" vertex="1">
                    <mxGeometry x="354" y="430" width="120" height="60" as="geometry"/>
                </mxCell>
                <mxCell id="16" value="" style="edgeStyle=none;html=1;" parent="1" source="13" target="15" edge="1">
                    <mxGeometry relative="1" as="geometry"/>
                </mxCell>
                <mxCell id="26" value="" style="edgeStyle=none;html=1;" parent="1" source="13" target="25" edge="1">
                    <mxGeometry relative="1" as="geometry"/>
                </mxCell>
                <mxCell id="13" value="Does password meet minimum requirements?" style="rhombus;whiteSpace=wrap;html=1;" parent="1" vertex="1">
                    <mxGeometry x="334" y="515" width="162" height="110" as="geometry"/>
                </mxCell>
                <mxCell id="18" value="" style="edgeStyle=none;html=1;" parent="1" source="15" target="17" edge="1">
                    <mxGeometry relative="1" as="geometry"/>
                </mxCell>
                <mxCell id="15" value="&lt;b&gt;INPUT confirm password&lt;/b&gt;" style="shape=parallelogram;perimeter=parallelogramPerimeter;whiteSpace=wrap;html=1;fixedSize=1;" parent="1" vertex="1">
                    <mxGeometry x="354" y="660" width="120" height="60" as="geometry"/>
                </mxCell>
                <mxCell id="20" value="" style="edgeStyle=none;html=1;" parent="1" source="17" target="19" edge="1">
                    <mxGeometry relative="1" as="geometry"/>
                </mxCell>
                <mxCell id="31" value="" style="edgeStyle=none;html=1;" parent="1" source="17" target="30" edge="1">
                    <mxGeometry relative="1" as="geometry"/>
                </mxCell>
                <mxCell id="17" value="Does password match?" style="rhombus;whiteSpace=wrap;html=1;" parent="1" vertex="1">
                    <mxGeometry x="355" y="750" width="120" height="80" as="geometry"/>
                </mxCell>
                <mxCell id="35" value="" style="edgeStyle=none;html=1;" parent="1" source="19" target="34" edge="1">
                    <mxGeometry relative="1" as="geometry"/>
                </mxCell>
                <mxCell id="19" value="&lt;b&gt;SUBMIT form&lt;/b&gt;" style="shape=parallelogram;perimeter=parallelogramPerimeter;whiteSpace=wrap;html=1;fixedSize=1;" parent="1" vertex="1">
                    <mxGeometry x="354" y="850" width="120" height="50" as="geometry"/>
                </mxCell>
                <mxCell id="21" value="&lt;b&gt;OUTPUT error message&lt;/b&gt; - &quot;Already registered.&quot;" style="shape=parallelogram;perimeter=parallelogramPerimeter;whiteSpace=wrap;html=1;fixedSize=1;" parent="1" vertex="1">
                    <mxGeometry x="550" y="302.5" width="170" height="85" as="geometry"/>
                </mxCell>
                <mxCell id="23" value="&lt;b&gt;YES&lt;/b&gt;" style="text;html=1;strokeColor=none;fillColor=none;align=center;verticalAlign=middle;whiteSpace=wrap;rounded=0;" parent="1" vertex="1">
                    <mxGeometry x="482" y="321" width="60" height="30" as="geometry"/>
                </mxCell>
                <mxCell id="24" value="&lt;b&gt;NO&lt;/b&gt;" style="text;html=1;strokeColor=none;fillColor=none;align=center;verticalAlign=middle;whiteSpace=wrap;rounded=0;" parent="1" vertex="1">
                    <mxGeometry x="369" y="397" width="60" height="30" as="geometry"/>
                </mxCell>
                <mxCell id="27" style="edgeStyle=none;html=1;exitX=0.5;exitY=0;exitDx=0;exitDy=0;entryX=1;entryY=0.5;entryDx=0;entryDy=0;" parent="1" source="25" target="11" edge="1">
                    <mxGeometry relative="1" as="geometry">
                        <Array as="points">
                            <mxPoint x="657" y="460"/>
                        </Array>
                    </mxGeometry>
                </mxCell>
                <mxCell id="25" value="&lt;b&gt;OUTPUT error&lt;/b&gt; -&lt;br&gt;&amp;nbsp;&quot;Password must contain XYZ&quot;" style="shape=parallelogram;perimeter=parallelogramPerimeter;whiteSpace=wrap;html=1;fixedSize=1;" parent="1" vertex="1">
                    <mxGeometry x="597" y="540" width="120" height="60" as="geometry"/>
                </mxCell>
                <mxCell id="28" value="&lt;b&gt;NO&lt;/b&gt;" style="text;html=1;strokeColor=none;fillColor=none;align=center;verticalAlign=middle;whiteSpace=wrap;rounded=0;" parent="1" vertex="1">
                    <mxGeometry x="514" y="544" width="60" height="30" as="geometry"/>
                </mxCell>
                <mxCell id="29" value="&lt;b&gt;YES&lt;/b&gt;" style="text;html=1;strokeColor=none;fillColor=none;align=center;verticalAlign=middle;whiteSpace=wrap;rounded=0;" parent="1" vertex="1">
                    <mxGeometry x="363" y="626" width="60" height="30" as="geometry"/>
                </mxCell>
                <mxCell id="32" style="edgeStyle=none;html=1;entryX=1;entryY=0.5;entryDx=0;entryDy=0;" parent="1" source="30" target="15" edge="1">
                    <mxGeometry relative="1" as="geometry">
                        <Array as="points">
                            <mxPoint x="647" y="690"/>
                        </Array>
                    </mxGeometry>
                </mxCell>
                <mxCell id="30" value="&lt;b&gt;OUTPUT error&lt;/b&gt; -&lt;br&gt;&quot;Password does not match&quot;" style="shape=parallelogram;perimeter=parallelogramPerimeter;whiteSpace=wrap;html=1;fixedSize=1;" parent="1" vertex="1">
                    <mxGeometry x="573" y="760" width="147" height="60" as="geometry"/>
                </mxCell>
                <mxCell id="33" value="&lt;b&gt;NO&lt;/b&gt;" style="text;html=1;strokeColor=none;fillColor=none;align=center;verticalAlign=middle;whiteSpace=wrap;rounded=0;" parent="1" vertex="1">
                    <mxGeometry x="496" y="760" width="60" height="30" as="geometry"/>
                </mxCell>
                <mxCell id="37" value="" style="edgeStyle=none;html=1;" parent="1" source="34" target="36" edge="1">
                    <mxGeometry relative="1" as="geometry"/>
                </mxCell>
                <mxCell id="34" value="&lt;b&gt;ADD new user&lt;/b&gt; to database" style="whiteSpace=wrap;html=1;" parent="1" vertex="1">
                    <mxGeometry x="354" y="930" width="120" height="60" as="geometry"/>
                </mxCell>
                <mxCell id="39" value="" style="edgeStyle=none;html=1;" parent="1" source="36" target="38" edge="1">
                    <mxGeometry relative="1" as="geometry"/>
                </mxCell>
                <mxCell id="36" value="&lt;b&gt;OUTPUT user dashboard&lt;/b&gt;" style="shape=parallelogram;perimeter=parallelogramPerimeter;whiteSpace=wrap;html=1;fixedSize=1;" parent="1" vertex="1">
                    <mxGeometry x="354" y="1010" width="120" height="60" as="geometry"/>
                </mxCell>
                <mxCell id="38" value="&lt;b&gt;END&lt;/b&gt;" style="rounded=1;whiteSpace=wrap;html=1;" parent="1" vertex="1">
                    <mxGeometry x="354" y="1090" width="120" height="60" as="geometry"/>
                </mxCell>
            </root>
        </mxGraphModel>
    </diagram>
    <diagram id="6Rxti8Bqgsfr3pPgelCB" name="Login">
        <mxGraphModel dx="891" dy="515" grid="1" gridSize="10" guides="1" tooltips="1" connect="1" arrows="1" fold="1" page="1" pageScale="1" pageWidth="827" pageHeight="1169" math="0" shadow="0">
            <root>
                <mxCell id="0"/>
                <mxCell id="1" parent="0"/>
                <mxCell id="aioQq45jrc8KRIJk1Pcb-1" value="&lt;h1&gt;Login&lt;/h1&gt;&lt;p&gt;Process of authenticating an existing user and allowing them to log into the dashboard.&lt;/p&gt;" style="text;html=1;strokeColor=#B3B3B3;fillColor=#F0F0F0;spacing=5;spacingTop=-20;whiteSpace=wrap;overflow=hidden;rounded=0;shadow=1;" parent="1" vertex="1">
                    <mxGeometry x="30" y="31" width="200" height="109" as="geometry"/>
                </mxCell>
                <mxCell id="8Z0UbqeKj7b6ldBlNpYC-2" value="" style="edgeStyle=none;html=1;" parent="1" source="aioQq45jrc8KRIJk1Pcb-2" target="8Z0UbqeKj7b6ldBlNpYC-1" edge="1">
                    <mxGeometry relative="1" as="geometry"/>
                </mxCell>
                <mxCell id="aioQq45jrc8KRIJk1Pcb-2" value="&lt;b&gt;START&lt;/b&gt;" style="rounded=1;whiteSpace=wrap;html=1;shadow=0;strokeColor=#000000;fillColor=#FFFFFF;" parent="1" vertex="1">
                    <mxGeometry x="390" y="50" width="120" height="60" as="geometry"/>
                </mxCell>
                <mxCell id="fyY8U2kxj-wcBbfb5ikH-2" value="" style="edgeStyle=none;html=1;" parent="1" source="8Z0UbqeKj7b6ldBlNpYC-1" target="fyY8U2kxj-wcBbfb5ikH-1" edge="1">
                    <mxGeometry relative="1" as="geometry"/>
                </mxCell>
                <mxCell id="8Z0UbqeKj7b6ldBlNpYC-1" value="&lt;b&gt;DISPLAY login screen&lt;/b&gt;&lt;br&gt;with inputs for email address and password, and link to register" style="shape=parallelogram;perimeter=parallelogramPerimeter;whiteSpace=wrap;html=1;fixedSize=1;fillColor=#FFFFFF;strokeColor=#000000;rounded=0;shadow=0;" parent="1" vertex="1">
                    <mxGeometry x="340" y="140" width="220" height="60" as="geometry"/>
                </mxCell>
                <mxCell id="fyY8U2kxj-wcBbfb5ikH-4" value="" style="edgeStyle=none;html=1;" parent="1" source="fyY8U2kxj-wcBbfb5ikH-1" target="fyY8U2kxj-wcBbfb5ikH-3" edge="1">
                    <mxGeometry relative="1" as="geometry"/>
                </mxCell>
                <mxCell id="fyY8U2kxj-wcBbfb5ikH-1" value="&lt;b&gt;INPUT email address and password&lt;/b&gt;" style="shape=parallelogram;perimeter=parallelogramPerimeter;whiteSpace=wrap;html=1;fixedSize=1;fillColor=#FFFFFF;strokeColor=#000000;rounded=0;shadow=0;spacingLeft=0;spacingRight=0;spacing=2;" parent="1" vertex="1">
                    <mxGeometry x="360" y="230" width="170" height="60" as="geometry"/>
                </mxCell>
                <mxCell id="fyY8U2kxj-wcBbfb5ikH-6" value="" style="edgeStyle=none;html=1;" parent="1" source="fyY8U2kxj-wcBbfb5ikH-3" target="fyY8U2kxj-wcBbfb5ikH-5" edge="1">
                    <mxGeometry relative="1" as="geometry"/>
                </mxCell>
                <mxCell id="fyY8U2kxj-wcBbfb5ikH-3" value="&lt;b&gt;VERIFY login details&lt;/b&gt; with database" style="whiteSpace=wrap;html=1;fillColor=#FFFFFF;strokeColor=#000000;rounded=0;shadow=0;spacingLeft=0;spacingRight=0;spacing=2;" parent="1" vertex="1">
                    <mxGeometry x="385" y="320" width="120" height="60" as="geometry"/>
                </mxCell>
                <mxCell id="fyY8U2kxj-wcBbfb5ikH-8" value="" style="edgeStyle=none;html=1;" parent="1" source="fyY8U2kxj-wcBbfb5ikH-5" target="fyY8U2kxj-wcBbfb5ikH-7" edge="1">
                    <mxGeometry relative="1" as="geometry"/>
                </mxCell>
                <mxCell id="fyY8U2kxj-wcBbfb5ikH-17" value="" style="edgeStyle=none;html=1;" parent="1" source="fyY8U2kxj-wcBbfb5ikH-5" target="fyY8U2kxj-wcBbfb5ikH-16" edge="1">
                    <mxGeometry relative="1" as="geometry"/>
                </mxCell>
                <mxCell id="fyY8U2kxj-wcBbfb5ikH-5" value="Does it match an existing user?" style="rhombus;whiteSpace=wrap;html=1;fillColor=#FFFFFF;strokeColor=#000000;rounded=0;shadow=0;spacingLeft=0;spacingRight=0;spacing=2;" parent="1" vertex="1">
                    <mxGeometry x="385" y="415" width="115" height="90" as="geometry"/>
                </mxCell>
                <mxCell id="fyY8U2kxj-wcBbfb5ikH-10" value="" style="edgeStyle=none;html=1;" parent="1" source="fyY8U2kxj-wcBbfb5ikH-7" target="fyY8U2kxj-wcBbfb5ikH-9" edge="1">
                    <mxGeometry relative="1" as="geometry">
                        <Array as="points">
                            <mxPoint x="700" y="460"/>
                        </Array>
                    </mxGeometry>
                </mxCell>
                <mxCell id="fyY8U2kxj-wcBbfb5ikH-13" value="" style="edgeStyle=none;html=1;" parent="1" source="fyY8U2kxj-wcBbfb5ikH-7" target="fyY8U2kxj-wcBbfb5ikH-12" edge="1">
                    <mxGeometry relative="1" as="geometry"/>
                </mxCell>
                <mxCell id="fyY8U2kxj-wcBbfb5ikH-7" value="Is this the 4th attempt?" style="rhombus;whiteSpace=wrap;html=1;fillColor=#FFFFFF;strokeColor=#000000;rounded=0;shadow=0;spacingLeft=0;spacingRight=0;spacing=2;" parent="1" vertex="1">
                    <mxGeometry x="552.5" y="410" width="105" height="100" as="geometry"/>
                </mxCell>
                <mxCell id="fyY8U2kxj-wcBbfb5ikH-11" style="edgeStyle=none;html=1;exitX=0.5;exitY=0;exitDx=0;exitDy=0;entryX=1;entryY=0.5;entryDx=0;entryDy=0;" parent="1" source="fyY8U2kxj-wcBbfb5ikH-9" target="fyY8U2kxj-wcBbfb5ikH-1" edge="1">
                    <mxGeometry relative="1" as="geometry">
                        <Array as="points">
                            <mxPoint x="700" y="260"/>
                        </Array>
                    </mxGeometry>
                </mxCell>
                <mxCell id="fyY8U2kxj-wcBbfb5ikH-9" value="&lt;b&gt;OUTPUT error&lt;/b&gt; - &quot;Username or password incorrect&quot;" style="shape=parallelogram;perimeter=parallelogramPerimeter;whiteSpace=wrap;html=1;fixedSize=1;fillColor=#FFFFFF;strokeColor=#000000;rounded=0;shadow=0;spacingLeft=8;spacingRight=8;spacing=2;" parent="1" vertex="1">
                    <mxGeometry x="640" y="320" width="140" height="60" as="geometry"/>
                </mxCell>
                <mxCell id="fyY8U2kxj-wcBbfb5ikH-15" value="" style="edgeStyle=none;html=1;" parent="1" source="fyY8U2kxj-wcBbfb5ikH-12" target="fyY8U2kxj-wcBbfb5ikH-14" edge="1">
                    <mxGeometry relative="1" as="geometry"/>
                </mxCell>
                <mxCell id="fyY8U2kxj-wcBbfb5ikH-12" value="&lt;b&gt;LOCK account&lt;/b&gt;" style="whiteSpace=wrap;html=1;fillColor=#FFFFFF;strokeColor=#000000;rounded=0;shadow=0;spacingLeft=0;spacingRight=0;spacing=2;" parent="1" vertex="1">
                    <mxGeometry x="545" y="540" width="120" height="60" as="geometry"/>
                </mxCell>
                <mxCell id="fyY8U2kxj-wcBbfb5ikH-14" value="&lt;b&gt;OUTPUT error&lt;/b&gt; - &quot;Account locked&quot;" style="shape=parallelogram;perimeter=parallelogramPerimeter;whiteSpace=wrap;html=1;fixedSize=1;fillColor=#FFFFFF;strokeColor=#000000;rounded=0;shadow=0;spacingLeft=0;spacingRight=0;spacing=2;" parent="1" vertex="1">
                    <mxGeometry x="545" y="640" width="120" height="60" as="geometry"/>
                </mxCell>
                <mxCell id="fyY8U2kxj-wcBbfb5ikH-19" value="" style="edgeStyle=none;html=1;entryX=0.5;entryY=0;entryDx=0;entryDy=0;" parent="1" source="fyY8U2kxj-wcBbfb5ikH-16" target="fyY8U2kxj-wcBbfb5ikH-20" edge="1">
                    <mxGeometry relative="1" as="geometry">
                        <mxPoint x="445" y="680" as="targetPoint"/>
                    </mxGeometry>
                </mxCell>
                <mxCell id="fyY8U2kxj-wcBbfb5ikH-16" value="&lt;b&gt;DISPLAY user dashboard&lt;/b&gt;" style="shape=parallelogram;perimeter=parallelogramPerimeter;whiteSpace=wrap;html=1;fixedSize=1;fillColor=#FFFFFF;strokeColor=#000000;rounded=0;shadow=0;spacingLeft=0;spacingRight=0;spacing=2;" parent="1" vertex="1">
                    <mxGeometry x="385" y="540" width="120" height="60" as="geometry"/>
                </mxCell>
                <mxCell id="fyY8U2kxj-wcBbfb5ikH-20" value="&lt;b&gt;END&lt;/b&gt;" style="rounded=1;whiteSpace=wrap;html=1;shadow=0;strokeColor=#000000;fillColor=#FFFFFF;" parent="1" vertex="1">
                    <mxGeometry x="385" y="640" width="120" height="60" as="geometry"/>
                </mxCell>
                <mxCell id="fyY8U2kxj-wcBbfb5ikH-21" value="&lt;b&gt;NO&lt;/b&gt;" style="text;html=1;strokeColor=none;fillColor=none;align=center;verticalAlign=middle;whiteSpace=wrap;rounded=0;shadow=0;" parent="1" vertex="1">
                    <mxGeometry x="492.5" y="430" width="60" height="30" as="geometry"/>
                </mxCell>
                <mxCell id="fyY8U2kxj-wcBbfb5ikH-22" value="&lt;b&gt;NO&lt;/b&gt;" style="text;html=1;strokeColor=none;fillColor=none;align=center;verticalAlign=middle;whiteSpace=wrap;rounded=0;shadow=0;" parent="1" vertex="1">
                    <mxGeometry x="650" y="430" width="60" height="30" as="geometry"/>
                </mxCell>
                <mxCell id="fyY8U2kxj-wcBbfb5ikH-23" value="&lt;b&gt;YES&lt;/b&gt;" style="text;html=1;strokeColor=none;fillColor=none;align=center;verticalAlign=middle;whiteSpace=wrap;rounded=0;shadow=0;" parent="1" vertex="1">
                    <mxGeometry x="545" y="505" width="60" height="30" as="geometry"/>
                </mxCell>
                <mxCell id="fyY8U2kxj-wcBbfb5ikH-24" value="&lt;b&gt;YES&lt;/b&gt;" style="text;html=1;strokeColor=none;fillColor=none;align=center;verticalAlign=middle;whiteSpace=wrap;rounded=0;shadow=0;" parent="1" vertex="1">
                    <mxGeometry x="390" y="505" width="60" height="30" as="geometry"/>
                </mxCell>
            </root>
        </mxGraphModel>
    </diagram>
    <diagram id="ofNKE14w6NfW1SfEYO_H" name="Create new project">
        <mxGraphModel dx="891" dy="515" grid="1" gridSize="10" guides="1" tooltips="1" connect="1" arrows="1" fold="1" page="1" pageScale="1" pageWidth="827" pageHeight="1169" math="0" shadow="0">
            <root>
                <mxCell id="0"/>
                <mxCell id="1" parent="0"/>
                <mxCell id="_Nyswi0cJlhYhOQDGxXt-3" value="" style="edgeStyle=none;html=1;" parent="1" source="33psBw0loe2s3ne4JGTk-1" target="_Nyswi0cJlhYhOQDGxXt-2" edge="1">
                    <mxGeometry relative="1" as="geometry"/>
                </mxCell>
                <mxCell id="33psBw0loe2s3ne4JGTk-1" value="&lt;b&gt;START&lt;/b&gt;" style="rounded=1;whiteSpace=wrap;html=1;" parent="1" vertex="1">
                    <mxGeometry x="414" y="40" width="120" height="60" as="geometry"/>
                </mxCell>
                <mxCell id="_Nyswi0cJlhYhOQDGxXt-1" value="&lt;h1&gt;New project&lt;/h1&gt;&lt;p&gt;Process of creating a new project. This is an overarching container in which tests can be grouped.&lt;/p&gt;" style="text;html=1;strokeColor=#B3B3B3;fillColor=#F0F0F0;spacing=5;spacingTop=-20;whiteSpace=wrap;overflow=hidden;rounded=0;shadow=1;" parent="1" vertex="1">
                    <mxGeometry x="30" y="31" width="200" height="109" as="geometry"/>
                </mxCell>
                <mxCell id="_Nyswi0cJlhYhOQDGxXt-5" value="" style="edgeStyle=none;html=1;" parent="1" source="_Nyswi0cJlhYhOQDGxXt-2" target="_Nyswi0cJlhYhOQDGxXt-4" edge="1">
                    <mxGeometry relative="1" as="geometry"/>
                </mxCell>
                <mxCell id="_Nyswi0cJlhYhOQDGxXt-2" value="&lt;b&gt;CLICK&lt;br&gt;'Create new project'&lt;/b&gt;" style="shape=parallelogram;perimeter=parallelogramPerimeter;whiteSpace=wrap;html=1;fixedSize=1;rounded=0;" parent="1" vertex="1">
                    <mxGeometry x="401" y="130" width="146" height="60" as="geometry"/>
                </mxCell>
                <mxCell id="AmppWKOFMQ5c8f4MuqpN-4" value="" style="edgeStyle=none;html=1;" parent="1" source="_Nyswi0cJlhYhOQDGxXt-4" target="AmppWKOFMQ5c8f4MuqpN-3" edge="1">
                    <mxGeometry relative="1" as="geometry"/>
                </mxCell>
                <mxCell id="_Nyswi0cJlhYhOQDGxXt-4" value="&lt;b&gt;DISPLAY new project form&lt;br&gt;&lt;/b&gt;with project title, summary, participants, acceptance criteria and deadline fields" style="shape=parallelogram;perimeter=parallelogramPerimeter;whiteSpace=wrap;html=1;fixedSize=1;rounded=0;" parent="1" vertex="1">
                    <mxGeometry x="345.5" y="220" width="257" height="80" as="geometry"/>
                </mxCell>
                <mxCell id="_fUUcRKQ4hCqRtkVBzpE-2" value="" style="edgeStyle=none;html=1;" parent="1" source="AmppWKOFMQ5c8f4MuqpN-3" target="_fUUcRKQ4hCqRtkVBzpE-1" edge="1">
                    <mxGeometry relative="1" as="geometry"/>
                </mxCell>
                <mxCell id="AmppWKOFMQ5c8f4MuqpN-3" value="&lt;b&gt;INPUT project details &lt;br&gt;&lt;/b&gt;and&lt;b&gt; SUBMIT&lt;/b&gt;" style="shape=parallelogram;perimeter=parallelogramPerimeter;whiteSpace=wrap;html=1;fixedSize=1;rounded=0;" parent="1" vertex="1">
                    <mxGeometry x="396" y="330" width="156" height="60" as="geometry"/>
                </mxCell>
                <mxCell id="_fUUcRKQ4hCqRtkVBzpE-4" value="" style="edgeStyle=none;html=1;" parent="1" source="_fUUcRKQ4hCqRtkVBzpE-1" target="_fUUcRKQ4hCqRtkVBzpE-3" edge="1">
                    <mxGeometry relative="1" as="geometry"/>
                </mxCell>
                <mxCell id="_fUUcRKQ4hCqRtkVBzpE-1" value="&lt;b&gt;ADD project to database&lt;/b&gt; with unique ID" style="whiteSpace=wrap;html=1;rounded=0;" parent="1" vertex="1">
                    <mxGeometry x="414" y="420" width="120" height="60" as="geometry"/>
                </mxCell>
                <mxCell id="_fUUcRKQ4hCqRtkVBzpE-8" value="" style="edgeStyle=none;html=1;" parent="1" source="_fUUcRKQ4hCqRtkVBzpE-3" target="_fUUcRKQ4hCqRtkVBzpE-7" edge="1">
                    <mxGeometry relative="1" as="geometry"/>
                </mxCell>
                <mxCell id="_fUUcRKQ4hCqRtkVBzpE-3" value="&lt;b&gt;OUTPUT project page&lt;/b&gt; &lt;br&gt;with the details previously input and the option to add tests&amp;nbsp;" style="shape=parallelogram;perimeter=parallelogramPerimeter;whiteSpace=wrap;html=1;fixedSize=1;rounded=0;spacingRight=8;spacingLeft=8;" parent="1" vertex="1">
                    <mxGeometry x="369" y="510" width="221" height="70" as="geometry"/>
                </mxCell>
                <mxCell id="_fUUcRKQ4hCqRtkVBzpE-7" value="&lt;b&gt;END&lt;/b&gt;" style="rounded=1;whiteSpace=wrap;html=1;" parent="1" vertex="1">
                    <mxGeometry x="414" y="640" width="120" height="60" as="geometry"/>
                </mxCell>
            </root>
        </mxGraphModel>
    </diagram>
    <diagram id="jCwMajzmixFVk5WwwmPw" name="Create new test">
        <mxGraphModel dx="891" dy="515" grid="1" gridSize="10" guides="1" tooltips="1" connect="1" arrows="1" fold="1" page="1" pageScale="1" pageWidth="827" pageHeight="1169" math="0" shadow="0">
            <root>
                <mxCell id="0"/>
                <mxCell id="1" parent="0"/>
                <mxCell id="f80OO24gTt6-uvhXByeH-3" value="" style="edgeStyle=none;html=1;" parent="1" source="f80OO24gTt6-uvhXByeH-1" target="f80OO24gTt6-uvhXByeH-2" edge="1">
                    <mxGeometry relative="1" as="geometry"/>
                </mxCell>
                <mxCell id="f80OO24gTt6-uvhXByeH-1" value="&lt;b&gt;START&lt;/b&gt;" style="rounded=1;whiteSpace=wrap;html=1;" parent="1" vertex="1">
                    <mxGeometry x="354" y="40" width="120" height="60" as="geometry"/>
                </mxCell>
                <mxCell id="djushEhwb5dEfLm99lg4-2" value="" style="edgeStyle=none;html=1;" parent="1" source="f80OO24gTt6-uvhXByeH-2" target="djushEhwb5dEfLm99lg4-1" edge="1">
                    <mxGeometry relative="1" as="geometry"/>
                </mxCell>
                <mxCell id="f80OO24gTt6-uvhXByeH-2" value="&lt;b&gt;CLICK 'Add new test'&lt;/b&gt;" style="shape=parallelogram;perimeter=parallelogramPerimeter;whiteSpace=wrap;html=1;fixedSize=1;rounded=0;spacing=2;spacingRight=8;spacingLeft=8;" parent="1" vertex="1">
                    <mxGeometry x="346" y="140" width="136" height="60" as="geometry"/>
                </mxCell>
                <mxCell id="bAp4nz-qdbp_IzpSCIqR-1" value="&lt;h1&gt;New test&lt;/h1&gt;&lt;p&gt;Process of creating a new test and attaching it to the project.&lt;/p&gt;" style="text;html=1;strokeColor=#B3B3B3;fillColor=#F0F0F0;spacing=5;spacingTop=-20;whiteSpace=wrap;overflow=hidden;rounded=0;shadow=1;" parent="1" vertex="1">
                    <mxGeometry x="30" y="31" width="200" height="109" as="geometry"/>
                </mxCell>
                <mxCell id="djushEhwb5dEfLm99lg4-4" value="" style="edgeStyle=none;html=1;" parent="1" source="djushEhwb5dEfLm99lg4-1" target="djushEhwb5dEfLm99lg4-3" edge="1">
                    <mxGeometry relative="1" as="geometry"/>
                </mxCell>
                <mxCell id="djushEhwb5dEfLm99lg4-1" value="&lt;b&gt;DISPLAY new test form&lt;/b&gt;&lt;br&gt;with fields for title, description, steps, assignee, connected ACs, expected outcome, input data" style="shape=parallelogram;perimeter=parallelogramPerimeter;whiteSpace=wrap;html=1;fixedSize=1;rounded=0;spacingRight=8;spacingLeft=8;" parent="1" vertex="1">
                    <mxGeometry x="318" y="240" width="202" height="70" as="geometry"/>
                </mxCell>
                <mxCell id="djushEhwb5dEfLm99lg4-6" value="" style="edgeStyle=none;html=1;" parent="1" source="djushEhwb5dEfLm99lg4-3" target="djushEhwb5dEfLm99lg4-5" edge="1">
                    <mxGeometry relative="1" as="geometry"/>
                </mxCell>
                <mxCell id="djushEhwb5dEfLm99lg4-3" value="&lt;b&gt;INPUT test details&lt;br&gt;&lt;/b&gt;Required: Title, description, connected AC" style="shape=parallelogram;perimeter=parallelogramPerimeter;whiteSpace=wrap;html=1;fixedSize=1;rounded=0;" parent="1" vertex="1">
                    <mxGeometry x="327" y="340" width="174" height="70" as="geometry"/>
                </mxCell>
                <mxCell id="djushEhwb5dEfLm99lg4-8" value="" style="edgeStyle=none;html=1;" parent="1" source="djushEhwb5dEfLm99lg4-5" target="djushEhwb5dEfLm99lg4-7" edge="1">
                    <mxGeometry relative="1" as="geometry"/>
                </mxCell>
                <mxCell id="djushEhwb5dEfLm99lg4-5" value="&lt;b&gt;GENERATE unique test id and ADD to parent project&lt;/b&gt; object in database" style="whiteSpace=wrap;html=1;rounded=0;" parent="1" vertex="1">
                    <mxGeometry x="337" y="440" width="154" height="80" as="geometry"/>
                </mxCell>
                <mxCell id="djushEhwb5dEfLm99lg4-10" value="" style="edgeStyle=none;html=1;" parent="1" source="djushEhwb5dEfLm99lg4-7" target="djushEhwb5dEfLm99lg4-9" edge="1">
                    <mxGeometry relative="1" as="geometry"/>
                </mxCell>
                <mxCell id="djushEhwb5dEfLm99lg4-7" value="&lt;b&gt;OUTPUT Project page&lt;br&gt;&lt;/b&gt;with newly created test added to test list" style="shape=parallelogram;perimeter=parallelogramPerimeter;whiteSpace=wrap;html=1;fixedSize=1;rounded=0;labelPosition=center;verticalLabelPosition=middle;align=center;verticalAlign=middle;spacingRight=8;spacingLeft=8;" parent="1" vertex="1">
                    <mxGeometry x="327" y="560" width="174" height="80" as="geometry"/>
                </mxCell>
                <mxCell id="djushEhwb5dEfLm99lg4-12" value="" style="edgeStyle=none;html=1;" parent="1" source="djushEhwb5dEfLm99lg4-9" target="djushEhwb5dEfLm99lg4-11" edge="1">
                    <mxGeometry relative="1" as="geometry"/>
                </mxCell>
                <mxCell id="djushEhwb5dEfLm99lg4-9" value="&lt;b&gt;CLICK test name on list&lt;/b&gt;" style="shape=parallelogram;perimeter=parallelogramPerimeter;whiteSpace=wrap;html=1;fixedSize=1;rounded=0;spacingRight=8;spacingLeft=8;" parent="1" vertex="1">
                    <mxGeometry x="354" y="700" width="120" height="60" as="geometry"/>
                </mxCell>
                <mxCell id="djushEhwb5dEfLm99lg4-16" value="" style="edgeStyle=none;html=1;" parent="1" source="djushEhwb5dEfLm99lg4-11" target="djushEhwb5dEfLm99lg4-15" edge="1">
                    <mxGeometry relative="1" as="geometry"/>
                </mxCell>
                <mxCell id="djushEhwb5dEfLm99lg4-11" value="&lt;b&gt;DISPLAY test details &lt;/b&gt;&lt;br&gt;with editable fields" style="shape=parallelogram;perimeter=parallelogramPerimeter;whiteSpace=wrap;html=1;fixedSize=1;rounded=0;spacingRight=8;spacingLeft=8;" parent="1" vertex="1">
                    <mxGeometry x="337" y="820" width="154" height="60" as="geometry"/>
                </mxCell>
                <mxCell id="djushEhwb5dEfLm99lg4-15" value="&lt;b&gt;END&lt;/b&gt;" style="rounded=1;whiteSpace=wrap;html=1;" parent="1" vertex="1">
                    <mxGeometry x="354" y="920" width="120" height="60" as="geometry"/>
                </mxCell>
            </root>
        </mxGraphModel>
    </diagram>
</mxfile>